<?xml version="1.0" encoding="UTF-8" standalone="no"?>
<!-- Created with Inkscape (http://www.inkscape.org/) -->

<svg
   width="80.019936mm"
   height="80.019936mm"
   viewBox="0 0 80.019936 80.019936"
   version="1.1"
   id="svg1"
   xml:space="preserve"
   inkscape:version="1.4.4 (dcaf3e7, 2026-05-05)"
   sodipodi:docname="vas.svg"
   xmlns:inkscape="http://www.inkscape.org/namespaces/inkscape"
   xmlns:sodipodi="http://sodipodi.sourceforge.net/DTD/sodipodi-0.dtd"
   xmlns:xlink="http://www.w3.org/1999/xlink"
   xmlns="http://www.w3.org/2000/svg"
   xmlns:svg="http://www.w3.org/2000/svg"><sodipodi:namedview
     id="namedview1"
     pagecolor="#ffffff"
     bordercolor="#000000"
     borderopacity="0.25"
     inkscape:showpageshadow="2"
     inkscape:pageopacity="0.0"
     inkscape:pagecheckerboard="0"
     inkscape:deskcolor="#d1d1d1"
     inkscape:document-units="mm"
     inkscape:zoom="2"
     inkscape:cx="70.75"
     inkscape:cy="124.5"
     inkscape:window-width="1920"
     inkscape:window-height="1009"
     inkscape:window-x="-8"
     inkscape:window-y="-8"
     inkscape:window-maximized="1"
     inkscape:current-layer="layer2" /><defs
     id="defs1"><linearGradient
       id="linearGradient24"
       inkscape:collect="always"><stop
         style="stop-color:#ffffff;stop-opacity:1;"
         offset="0"
         id="stop24" /><stop
         style="stop-color:#ffffff;stop-opacity:0.49860725;"
         offset="1"
         id="stop25" /></linearGradient><inkscape:path-effect
       effect="powerclip"
       message=""
       id="path-effect9"
       is_visible="true"
       lpeversion="1"
       inverse="true"
       flatten="false"
       hide_clip="false" /><inkscape:path-effect
       effect="powerclip"
       message=""
       id="path-effect8"
       is_visible="true"
       lpeversion="1"
       inverse="true"
       flatten="false"
       hide_clip="false" /><clipPath
       clipPathUnits="userSpaceOnUse"
       id="clipPath8"><ellipse
         style="fill:#00ffff;stroke-width:1.97512"
         id="ellipse8"
         cx="107.01132"
         cy="120.14482"
         rx="16.002384"
         ry="15.139465"
         display="none" /></clipPath><linearGradient
       inkscape:collect="always"
       xlink:href="#linearGradient24"
       id="linearGradient25"
       x1="109.1424"
       y1="134.90569"
       x2="119.24903"
       y2="111.09595"
       gradientUnits="userSpaceOnUse" /><linearGradient
       inkscape:collect="always"
       xlink:href="#linearGradient24"
       id="linearGradient26"
       gradientUnits="userSpaceOnUse"
       x1="109.1424"
       y1="134.90569"
       x2="119.24903"
       y2="111.09595" /></defs><g
     inkscape:label="Capa 1"
     inkscape:groupmode="layer"
     id="layer1"
     style="display:inline"
     transform="translate(-68.629003,-83.710242)" /><g
     inkscape:groupmode="layer"
     id="layer2"
     inkscape:label="Capa 2"
     transform="translate(-68.629003,-83.710242)"><rect
       style="fill:#0000ff;fill-opacity:1;stroke:none;stroke-width:0.586963;stroke-dasharray:none;stroke-opacity:1"
       id="rect18"
       width="56.582649"
       height="56.582645"
       x="136.01654"
       y="-17.706324"
       transform="rotate(45.027565)" /><g
       id="g13"
       style="fill:url(#linearGradient25)"
       transform="matrix(1.1952917,0,0,1.1566519,-23.985276,-18.239323)"><path
         id="path13"
         style="fill:url(#linearGradient26);fill-opacity:1;stroke:none;stroke-width:0.301;stroke-opacity:1"
         d="m 104.69151,135.12425 c -0.16837,-0.0253 -0.33801,-0.0428 -0.5085,-0.0429 -1.61275,-3e-5 -2.92017,1.24724 -2.92023,2.78587 10e-4,1.00879 0.58543,1.8739 1.50876,2.36552 0.59116,0.29443 0.92617,0.41512 1.64549,0.57792 3.44964,0.20666 4.33886,-5.07639 0.27448,-5.68641 z m 4.40932,-30.63502 c -1.8128,7e-5 -3.61522,0.2809 -5.34644,0.83302 1.07142,-0.21068 2.16285,-0.31682 3.25717,-0.31677 8.83763,1.4e-4 16.00192,6.77806 16.00212,15.13912 1.1e-4,8.36127 -7.16427,15.13951 -16.00212,15.13965 -0.77319,-10e-6 -1.54462,-0.0586 -2.31046,-0.15865 4.58607,1.25601 1.6367,6.02162 -1.09089,5.46799 1.77289,0.59613 3.62514,0.90609 5.49062,0.9188 9.95652,1.1e-4 18.02792,-8.28784 18.02784,-18.51153 8e-5,-10.22369 -8.07132,-18.51164 -18.02784,-18.51153 z"
         sodipodi:nodetypes="sccccsccccscccccc" /></g><path
       d="m 98.913159,118.46552 -4.865176,14.1228 h -3.604564 l -4.806085,-14.1228 h 3.42729 l 2.944712,9.82884 q 0.236365,0.79773 0.285608,1.40834 h 0.05909 q 0.06894,-0.65985 0.305305,-1.44774 l 2.925015,-9.78944 z m 14.719551,14.1228 h -3.46669 l -1.00455,-3.14168 h -5.02275 l -0.9947,3.14168 h -3.446991 l 5.140931,-14.1228 h 3.77199 z m -5.20003,-5.58412 -1.51668,-4.747 q -0.16742,-0.53182 -0.23636,-1.27046 h -0.0788 q -0.0492,0.62046 -0.24621,1.23107 l -1.53637,4.78639 z m 7.96345,5.04245 v -3.15153 q 0.85682,0.71894 1.86137,1.08334 1.00455,0.35454 2.0288,0.35454 0.60076,0 1.04395,-0.10833 0.45303,-0.10833 0.74848,-0.29546 0.30531,-0.19697 0.45304,-0.45303 0.14772,-0.26591 0.14772,-0.57121 0,-0.41364 -0.23636,-0.73864 -0.23636,-0.32501 -0.65,-0.60077 -0.40379,-0.27575 -0.96516,-0.53182 -0.56137,-0.25606 -1.21137,-0.52197 -1.65455,-0.6894 -2.47198,-1.6841 -0.80758,-0.9947 -0.80758,-2.40304 0,-1.10304 0.44318,-1.89092 0.44319,-0.79773 1.20152,-1.30985 0.76819,-0.51213 1.77274,-0.74849 1.00455,-0.24622 2.12728,-0.24622 1.10304,0 1.95001,0.13788 0.85683,0.12803 1.57577,0.40379 v 2.94472 q -0.35455,-0.24622 -0.77804,-0.43334 -0.41363,-0.18712 -0.85682,-0.3053 -0.44318,-0.12804 -0.88637,-0.18713 -0.43333,-0.0591 -0.82727,-0.0591 -0.54167,0 -0.98486,0.10834 -0.44318,0.0985 -0.74849,0.2856 -0.3053,0.18713 -0.47272,0.45304 -0.16743,0.25606 -0.16743,0.58106 0,0.35455 0.18712,0.64015 0.18712,0.27576 0.53182,0.53182 0.3447,0.24622 0.83713,0.49243 0.49243,0.23637 1.11288,0.49243 0.84698,0.35455 1.51668,0.75834 0.67955,0.39394 1.16212,0.89621 0.48258,0.50228 0.73864,1.15228 0.25607,0.64016 0.25607,1.49698 0,1.18182 -0.45304,1.9894 -0.44318,0.79773 -1.21137,1.30001 -0.76818,0.49243 -1.79243,0.70909 -1.0144,0.21667 -2.14698,0.21667 -1.16213,0 -2.21592,-0.19697 -1.04394,-0.19697 -1.81213,-0.59091 z"
       id="text21"
       style="font-weight:bold;font-size:20.1698px;font-family:'Leelawadee UI';-inkscape-font-specification:'Leelawadee UI Bold';letter-spacing:1.65054px;fill:#ffffff;stroke:#0000ff;stroke-width:3.71202;stroke-linecap:square;stroke-miterlimit:2.3;paint-order:stroke fill markers"
       transform="scale(1.0222147,0.97826806)"
       aria-label="VAS" /></g></svg>
